HIERARCHY
ROOT Hips
{
  OFFSET 0.000000 0.000000 0.000000
  CHANNELS 6 Xposition Yposition Zposition Zrotation Yrotation Xrotation
  JOINT Spine
  {
    OFFSET -0.059818 2.086548 0.021003
    CHANNELS 3 Zrotation Yrotation Xrotation
    JOINT Spine1
    {
      OFFSET 0.047353 2.084555 -0.017952
      CHANNELS 3 Zrotation Yrotation Xrotation
      JOINT Spine2
      {
        OFFSET 0.073283 2.082630 -0.028953
        CHANNELS 3 Zrotation Yrotation Xrotation
        JOINT Neck
        {
          OFFSET -0.100379 1.437811 0.030840
          CHANNELS 3 Zrotation Yrotation Xrotation
          JOINT Head
          {
            OFFSET 0.027441 1.456332 -0.073612
            CHANNELS 3 Zrotation Yrotation Xrotation
            End Site
            {
              OFFSET 0 0 0
            }
          }
        }
        JOINT LeftShoulder
        {
          OFFSET 2.750607 0.743894 0.252268
          CHANNELS 3 Zrotation Yrotation Xrotation
          JOINT LeftArm
          {
            OFFSET 4.369010 -0.000000 0.000000
            CHANNELS 3 Zrotation Yrotation Xrotation
            JOINT LeftForeArm
            {
              OFFSET 3.217370 -0.000000 -0.000000
              CHANNELS 3 Zrotation Yrotation Xrotation
              JOINT LeftHand
              {
                OFFSET 0.564313 -0.000000 0.000000
                CHANNELS 3 Zrotation Yrotation Xrotation
                JOINT LeftHandIndex1
                {
                  OFFSET 0.454963 -0.000000 0.000000
                  CHANNELS 3 Zrotation Yrotation Xrotation
                  End Site
                  {
                    OFFSET 0 0 0
                  }
                }
              }
            }
          }
        }
        JOINT RightShoulder
        {
          OFFSET -2.973790 0.790938 0.483767
          CHANNELS 3 Zrotation Yrotation Xrotation
          JOINT RightArm
          {
            OFFSET -4.341180 -0.000000 -0.000000
            CHANNELS 3 Zrotation Yrotation Xrotation
            JOINT RightForeArm
            {
              OFFSET -3.095310 -0.000000 0.000000
              CHANNELS 3 Zrotation Yrotation Xrotation
              JOINT RightHand
              {
                OFFSET -0.597446 -0.000000 0.000000
                CHANNELS 3 Zrotation Yrotation Xrotation
                JOINT RightHandIndex1
                {
                  OFFSET -0.481677 -0.000000 0.000000
                  CHANNELS 3 Zrotation Yrotation Xrotation
                  End Site
                  {
                    OFFSET 0 0 0
                  }
                }
              }
            }
          }
        }
      }
    }
  }
  JOINT LeftUpLeg
  {
    OFFSET 2.243231 -6.163230 0.000000
    CHANNELS 3 Zrotation Yrotation Xrotation
    JOINT LeftLeg
    {
      OFFSET 2.326769 -6.392750 0.000000
      CHANNELS 3 Zrotation Yrotation Xrotation
      JOINT LeftFoot
      {
        OFFSET 0.186861 -0.513396 1.959728
        CHANNELS 3 Zrotation Yrotation Xrotation
        JOINT LeftToeBase
        {
          OFFSET 0.000000 -0.000000 1.020330
          CHANNELS 3 Zrotation Yrotation Xrotation
          End Site
          {
            OFFSET 0 0 0
          }
        }
      }
    }
  }
  JOINT RightUpLeg
  {
    OFFSET -2.199780 -6.043852 0.000000
    CHANNELS 3 Zrotation Yrotation Xrotation
    JOINT RightLeg
    {
      OFFSET -2.293798 -6.302164 0.000000
      CHANNELS 3 Zrotation Yrotation Xrotation
      JOINT RightFoot
      {
        OFFSET -0.246243 -0.676548 1.948545
        CHANNELS 3 Zrotation Yrotation Xrotation
        JOINT RightToeBase
        {
          OFFSET -0.000000 -0.000000 1.032670
          CHANNELS 3 Zrotation Yrotation Xrotation
          End Site
          {
            OFFSET 0 0 0
          }
        }
      }
    }
  }
}
MOTION
Frames: 10
Frame Time: 0.00833333
11.102200 15.260200 -22.056100 176.084000 -52.071700 -169.218000 -24.231700 30.044000 -43.133600 0.000000 0.000000 56.202700 5.776760 0.000000 -10.696100 0.000000 0.000000 -19.358100 14.706400 8.018730 -20.975100 0.000000 0.000000 39.201200 -0.164872 0.000000 -25.149500 0.000000 0.000000 -18.278700 -0.643819 0.081623 1.993900 1.899960 0.096803 0.043817 2.306740 0.048363 -1.077290 5.091380 13.010200 -4.419070 -2.563690 8.495870 5.636410 0.000000 -0.000000 0.000000 91.093000 -22.014600 -29.273700 0.000000 0.000000 38.999000 49.250900 0.000000 -11.974600 0.000000 0.000000 7.125020 0.000000 -0.000000 0.000000 -68.639800 3.571170 -31.611100 0.000000 0.000000 44.051300 21.677600 0.000000 -21.320300 0.000000 0.000000 7.125020
11.167300 15.298100 -21.975200 175.544000 -50.062500 -168.769000 -21.260300 30.437600 -40.528400 0.000000 0.000000 56.197400 6.897640 0.000000 -10.991400 0.000000 0.000000 -12.310200 13.845000 9.112820 -21.790200 0.000000 0.000000 38.937700 0.192706 0.000000 -24.534000 0.000000 0.000000 -19.023800 -1.084260 -0.285441 2.023400 1.690600 -0.400871 0.100089 2.353310 -0.197693 -1.012220 5.377210 13.404100 -4.577650 -2.491180 8.750690 5.784650 -0.000000 -0.000000 0.000000 90.018400 -23.472800 -27.204000 0.000000 0.000000 39.501500 49.391900 0.000000 -11.316800 0.000000 0.000000 7.125020 -0.000000 -0.000000 0.000000 -66.449700 3.991240 -31.327700 0.000000 0.000000 42.166900 21.092400 0.000000 -21.045700 0.000000 0.000000 7.125020
11.222300 15.351400 -21.896200 175.080000 -48.018400 -168.236000 -18.184600 30.165800 -37.264500 0.000000 0.000000 55.320400 7.944010 0.000000 -10.159700 0.000000 0.000000 -11.170700 12.958300 10.287600 -22.681800 0.000000 0.000000 38.451300 0.650181 0.000000 -23.628700 0.000000 0.000000 -18.894500 -1.402260 -0.559477 1.871190 1.339930 -0.769775 0.067795 2.180140 -0.379199 -0.942498 5.756570 13.675900 -4.628640 -2.470780 8.930930 5.848840 0.000000 0.000000 0.000000 88.390600 -25.303300 -24.839500 0.000000 0.000000 39.991800 50.404600 0.000000 -11.786500 0.000000 0.000000 7.125020 0.000000 0.000000 0.000000 -63.883900 1.485790 -31.719500 0.000000 0.000000 40.310000 21.203000 0.000000 -20.497300 0.000000 0.000000 7.125020
11.268100 15.401700 -21.817300 174.549000 -45.905300 -167.631000 -15.038100 29.287200 -33.449500 0.000000 0.000000 54.306800 7.993890 0.000000 -9.255340 0.000000 0.000000 -8.148140 11.983100 11.397300 -23.568800 0.000000 0.000000 37.965500 1.098300 0.000000 -22.736600 0.000000 0.000000 -17.833500 -1.848590 -0.799059 1.702630 0.999881 -1.095110 -0.020093 2.087790 -0.538030 -0.920671 5.717490 13.880000 -4.892700 -2.320590 9.054460 5.887030 0.000000 -0.000000 0.000000 86.278700 -27.253400 -22.187600 0.000000 0.000000 40.634800 51.343700 0.000000 -12.993900 0.000000 0.000000 7.125020 0.000000 -0.000000 0.000000 -60.598800 -1.151810 -32.469400 0.000000 0.000000 38.783500 21.374100 0.000000 -19.700300 0.000000 0.000000 7.125020
11.308700 15.441300 -21.738200 173.871000 -43.819800 -166.932000 -12.325000 28.273700 -29.330600 0.000000 0.000000 52.914100 7.829600 0.000000 -7.807700 0.000000 0.000000 -5.768480 10.843300 12.419400 -24.409400 0.000000 0.000000 37.424300 1.538370 0.000000 -22.012600 0.000000 0.000000 -17.402000 -2.494510 -1.037180 1.541720 0.696402 -1.423250 -0.155741 2.144400 -0.696914 -0.945286 5.279350 13.976400 -5.143100 -2.086600 9.107370 5.808110 0.000000 0.000000 0.000000 83.655200 -29.238000 -19.394600 0.000000 0.000000 41.790700 51.581300 0.000000 -12.775000 0.000000 0.000000 7.125020 0.000000 0.000000 0.000000 -56.560300 -3.062770 -33.233700 0.000000 0.000000 37.480400 21.293500 0.000000 -18.589600 0.000000 0.000000 7.125020
11.345600 15.478600 -21.655300 173.203000 -41.851300 -166.130000 -10.079800 27.124700 -25.134000 0.000000 0.000000 51.247000 8.007010 0.000000 -6.190090 0.000000 0.000000 -2.516550 9.625390 13.350800 -25.383300 0.000000 0.000000 36.865700 1.925090 0.000000 -21.247400 0.000000 0.000000 -17.231300 -3.071640 -1.267890 1.270000 0.384815 -1.738660 -0.324625 2.150030 -0.850514 -0.941459 4.864150 14.008700 -5.364470 -1.918370 9.120430 5.711400 0.000000 0.000000 0.000000 80.323900 -31.397800 -16.323000 0.000000 0.000000 43.290800 51.455100 0.000000 -11.767700 0.000000 0.000000 7.125020 0.000000 0.000000 0.000000 -51.979800 -4.939440 -34.107200 0.000000 0.000000 36.346600 21.034300 0.000000 -19.015000 0.000000 0.000000 7.125020
11.377900 15.514700 -21.566900 172.853000 -40.153700 -165.384000 -8.154150 25.775600 -21.066100 0.000000 0.000000 49.345000 8.671380 0.000000 -4.425130 0.000000 0.000000 -0.091322 8.642890 14.006400 -26.510800 0.000000 0.000000 36.317100 2.022290 0.000000 -20.486800 0.000000 0.000000 -18.803900 -3.371750 -1.614300 0.922333 0.161369 -2.201040 -0.538570 2.089090 -1.079030 -0.936240 4.792980 14.166900 -5.579100 -1.904990 9.214420 5.712830 0.000000 -0.000000 0.000000 76.192000 -33.104400 -13.100600 0.000000 0.000000 44.838400 49.534000 0.000000 -11.687000 0.000000 0.000000 7.125020 0.000000 -0.000000 0.000000 -47.148400 -6.236180 -34.944300 0.000000 0.000000 35.377400 20.716400 0.000000 -21.354700 0.000000 0.000000 7.125020
11.409200 15.548500 -21.476500 172.588000 -38.718800 -164.644000 -6.686940 24.217100 -17.096300 0.000000 0.000000 47.220300 9.682800 0.000000 -2.452860 0.000000 0.000000 0.562644 7.607580 15.187800 -27.712000 0.000000 0.000000 35.823400 1.210890 0.000000 -19.821100 0.000000 0.000000 -23.621600 -3.664390 -2.116860 0.681323 0.009156 -2.876950 -0.809199 2.100610 -1.412070 -1.031870 4.866410 14.416000 -5.657290 -1.944060 9.375260 5.675280 0.000000 0.000000 0.000000 71.338000 -33.843600 -10.012400 0.000000 0.000000 46.970400 49.648200 0.000000 -11.089600 0.000000 0.000000 7.125020 0.000000 0.000000 0.000000 -42.192400 -6.841980 -35.709700 0.000000 0.000000 34.681500 19.603200 0.000000 -22.168900 0.000000 0.000000 7.125020
11.444600 15.584700 -21.382700 172.141000 -37.551300 -163.743000 -5.844520 22.097600 -13.401200 0.000000 0.000000 44.939100 10.891000 0.000000 -0.379265 0.000000 0.000000 2.838730 6.218970 16.986800 -29.014400 0.000000 0.000000 35.450700 0.198292 0.000000 -19.502400 0.000000 0.000000 -20.808100 -4.153820 -2.677870 0.510574 -0.095050 -3.637080 -1.063470 2.270700 -1.785620 -1.127220 4.748170 14.568400 -5.796370 -1.922970 9.473500 5.581170 -0.000000 0.000000 0.000000 65.901500 -34.244600 -6.744750 0.000000 0.000000 49.251200 50.885800 0.000000 -9.974410 0.000000 0.000000 7.125020 -0.000000 0.000000 0.000000 -37.087500 -6.814310 -36.473500 0.000000 0.000000 34.187300 19.633800 0.000000 -21.600200 0.000000 0.000000 7.125020
11.484300 15.608500 -21.277500 171.800000 -36.749700 -162.870000 -5.355950 19.618400 -10.065900 0.000000 0.000000 42.608800 11.686000 0.000000 1.790720 0.000000 0.000000 4.542280 5.294810 16.773600 -30.368100 0.000000 0.000000 35.220800 0.696040 0.000000 -18.957500 0.000000 0.000000 -19.336300 -4.669950 -3.298560 0.343234 0.003174 -4.466920 -1.176270 2.652930 -2.196680 -1.046470 4.319620 14.647600 -6.150200 -1.848860 9.519960 5.453400 0.000000 -0.000000 0.000000 59.988800 -34.540000 -3.176770 0.000000 0.000000 51.538500 51.916500 0.000000 -10.402100 0.000000 0.000000 7.125020 0.000000 -0.000000 0.000000 -31.763000 -6.460080 -37.014600 0.000000 0.000000 33.667300 19.225800 0.000000 -21.223500 0.000000 0.000000 7.125020
